<svg version="1.1" id="Layer_1" xmlns="http://www.w3.org/2000/svg" xmlns:xlink="http://www.w3.org/1999/xlink" x="0px" y="0px"
	 width="100%" viewBox="0 0 140 140" enable-background="new 0 0 140 140" xml:space="preserve">
<path fill="#FF5000" opacity="1.000000" stroke="none"
	d="
M1.000000,131.000000 
	C1.000000,91.312439 1.000000,51.624878 1.223994,11.810862 
	C4.744758,8.455404 8.048077,5.232945 11.310040,1.969156 
	C11.419921,1.859213 11.112765,1.332466 11.000000,1.000000 
	C50.687561,1.000000 90.375122,1.000000 130.189117,1.223979 
	C133.544571,4.744769 136.767059,8.048130 140.030869,11.310139 
	C140.140793,11.419998 140.667542,11.112800 141.000000,11.000002 
	C141.000000,50.687561 141.000000,90.375122 140.776093,130.189041 
	C137.255371,133.544464 133.951996,136.766983 130.689972,140.030823 
	C130.580093,140.140778 130.887238,140.667526 131.000000,141.000000 
	C91.312439,141.000000 51.624878,141.000000 11.810928,140.776062 
	C8.455492,137.255280 5.232984,133.951874 1.969148,130.689835 
	C1.859228,130.579971 1.332464,130.887192 1.000000,131.000000 
M58.430214,42.069832 
	C52.049156,35.625305 45.668095,29.180779 40.055431,23.512289 
	C37.449917,25.467676 35.512703,26.921520 34.469326,27.704552 
	C47.046795,40.288094 59.320553,52.567783 71.129417,64.382355 
	C82.962212,52.542355 95.250977,40.246109 107.561119,27.928471 
	C106.245865,26.431829 104.625824,24.588367 102.443192,22.104734 
	C91.552513,33.027817 81.141396,43.469906 70.221855,54.421936 
	C66.467346,50.481068 62.698792,46.525452 58.430214,42.069832 
M101.832146,56.332367 
	C107.470192,50.727375 113.108231,45.122387 119.126526,39.139366 
	C117.036522,37.079834 115.309570,35.378059 113.845184,33.935020 
	C101.158966,46.543282 88.810234,58.816128 76.635612,70.915939 
	C88.848099,83.119041 101.164223,95.425690 113.238747,107.490944 
	C114.909096,106.137779 116.810707,104.597260 119.404434,102.496048 
	C108.584595,91.744751 98.137329,81.363663 87.259750,70.554993 
	C92.071022,65.863304 96.701576,61.347843 101.832146,56.332367 
M64.432213,93.928040 
	C66.370827,91.712791 68.309448,89.497543 70.693977,86.772743 
	C81.918427,98.041832 92.302628,108.467339 102.695793,118.901833 
	C104.698586,117.119926 106.522766,115.496925 107.862617,114.304840 
	C95.146431,101.587006 82.834549,89.273529 70.814034,77.251457 
	C58.831955,89.240265 46.533607,101.545532 33.810669,114.275620 
	C35.220325,115.600800 36.994068,117.268250 39.130863,119.276993 
	C47.551136,110.840294 55.741524,102.633934 64.432213,93.928040 
z"/>
<path fill="#000000" opacity="0.000000" stroke="none"
	d="
M10.513435,1.000000 
	C11.112765,1.332466 11.419921,1.859213 11.310040,1.969156 
	C8.048077,5.232945 4.744758,8.455404 1.223994,11.342204 
	C1.000000,7.747543 1.000000,4.495087 1.000000,1.000000 
	C4.006597,1.000000 7.016734,1.000000 10.513435,1.000000 
z"/>
<path fill="#000000" opacity="0.000000" stroke="none"
	d="
M141.000000,10.513437 
	C140.667542,11.112800 140.140793,11.419998 140.030869,11.310139 
	C136.767059,8.048130 133.544571,4.744769 130.657776,1.223979 
	C134.252457,1.000000 137.504913,1.000000 141.000000,1.000000 
	C141.000000,4.006597 141.000000,7.016734 141.000000,10.513437 
z"/>
<path fill="#000000" opacity="0.000000" stroke="none"
	d="
M1.000000,131.486572 
	C1.332464,130.887192 1.859228,130.579971 1.969148,130.689835 
	C5.232984,133.951874 8.455492,137.255280 11.342272,140.776062 
	C7.747546,141.000000 4.495092,141.000000 1.000000,141.000000 
	C1.000000,137.993408 1.000000,134.983276 1.000000,131.486572 
z"/>
<path fill="#000000" opacity="0.000000" stroke="none"
	d="
M131.486572,141.000000 
	C130.887238,140.667526 130.580093,140.140778 130.689972,140.030823 
	C133.951996,136.766983 137.255371,133.544464 140.776093,130.657700 
	C141.000000,134.252457 141.000000,137.504898 141.000000,141.000000 
	C137.993408,141.000000 134.983276,141.000000 131.486572,141.000000 
z"/>
<path fill="#FFFFFF" opacity="0.000000" stroke="none"
	d="
M58.680222,42.319832 
	C62.698792,46.525452 66.467346,50.481068 70.221855,54.421936 
	C81.141396,43.469906 91.552513,33.027817 102.443192,22.104734 
	C104.625824,24.588367 106.245865,26.431829 107.561119,27.928471 
	C95.250977,40.246109 82.962212,52.542355 71.129417,64.382355 
	C59.320553,52.567783 47.046795,40.288094 34.469326,27.704552 
	C35.512703,26.921520 37.449917,25.467676 40.055431,23.512289 
	C45.668095,29.180779 52.049156,35.625305 58.680222,42.319832 
z"/>
<path fill="#FFFFFF" opacity="0.000000" stroke="none"
	d="
M101.582138,56.582375 
	C96.701576,61.347843 92.071022,65.863304 87.259750,70.554993 
	C98.137329,81.363663 108.584595,91.744751 119.404434,102.496048 
	C116.810707,104.597260 114.909096,106.137779 113.238747,107.490944 
	C101.164223,95.425690 88.848099,83.119041 76.635612,70.915939 
	C88.810234,58.816128 101.158966,46.543282 113.845184,33.935020 
	C115.309570,35.378059 117.036522,37.079834 119.126526,39.139366 
	C113.108231,45.122387 107.470192,50.727375 101.582138,56.582375 
z"/>
<path fill="#FFFFFF" opacity="0.000000" stroke="none"
	d="
M64.182060,94.177811 
	C55.741524,102.633934 47.551136,110.840294 39.130863,119.276993 
	C36.994068,117.268250 35.220325,115.600800 33.810669,114.275620 
	C46.533607,101.545532 58.831955,89.240265 70.814034,77.251457 
	C82.834549,89.273529 95.146431,101.587006 107.862617,114.304840 
	C106.522766,115.496925 104.698586,117.119926 102.695793,118.901833 
	C92.302628,108.467339 81.918427,98.041832 70.693977,86.772743 
	C68.309448,89.497543 66.370827,91.712791 64.182060,94.177811 
z"/>
</svg>